<svg viewBox="0 0 800 800" xmlns="http://www.w3.org/2000/svg"><path d="M367.63253489721035,748.1205505718747 L366.66523775113507,-24.75795671299204 M301.26278302932394,786.3966157175746 L299.54757903524035,13.079132562528969 M367.63253489721035,748.1205505718747 L301.26278302932394,786.3966157175746 M366.66523775113507,-24.75795671299204 L299.54757903524035,13.079132562528969 M367.44079951325955,824.757956712992 L366.4691631217955,51.00146930741039 M301.26278302932394,786.3966157175746 L367.44079951325955,824.757956712992 M299.54757903524035,13.079132562528969 L366.4691631217955,51.00146930741039 M433.81076472863015,786.3966157175746 L433.5870424685322,13.079132562528969 M367.44079951325955,824.757956712992 L433.81076472863015,786.3966157175746 M366.4691631217955,51.00146930741039 L433.5870424685322,13.079132562528969 M433.81076472863015,786.3966157175746 L367.63253489721035,748.1205505718747 M433.5870424685322,13.079132562528969 L366.66523775113507,-24.75795671299204" stroke="black"  stroke-width="4"  fill="red"/>
<path d="M486.7637202159432,717.56090615527 L486.8004859282638,641.0811280145795 M420.58543803878825,755.7689551847575 L420.54859048848806,679.2465819087176 M486.7637202159432,717.56090615527 L493.7230596234889,722.6829959882031 M493.7230596234889,722.6829959882031 L498.358776300245,728.6185077618458 M498.358776300245,728.6185077618458 L500.4004684748493,735.0231390753438 M500.4004684748493,735.0231390753438 L499.72806988938885,741.5249863445188 M499.72806988938885,741.5249863445188 L496.37916881776704,747.7460833497948 M496.37916881776704,747.7460833497948 L490.547147304443,753.3243883735706 M490.547147304443,753.3243883735706 L482.57024140759626,757.9349426272158 M482.57024140759626,757.9349426272158 L472.91203915079967,761.3089275131233 M472.91203915079967,761.3089275131233 L462.13453712931056,763.2494880630991 M462.13453712931056,763.2494880630991 L450.8653268101627,763.6433539084826 M450.8653268101627,763.6433539084826 L439.76082775590163,762.4675273759782 M439.76082775590163,762.4675273759782 L429.4677995081811,759.7906548721937 M429.4677995081811,759.7906548721937 L420.58543803878825,755.7689551847575 M486.8004859282638,641.0811280145795 L493.76756887329293,646.1975021583908 M493.76756887329293,646.1975021583908 L498.4084485638053,652.1263926741449 M498.4084485638053,652.1263926741449 L500.45242096475965,658.5238819652509 M500.45242096475965,658.5238819652509 L499.7792841670915,665.018481514672 M499.7792841670915,665.018481514672 L496.42666602665923,671.232646314776 M496.42666602665923,671.232646314776 L490.5881618441442,676.8047375270592 M490.5881618441442,676.8047375270592 L482.60238286487254,681.4101574885353 M482.60238286487254,681.4101574885353 L472.9334327792813,684.7803859907439 M472.9334327792813,684.7803859907439 L462.14393436084396,686.7187863752397 M462.14393436084396,686.7187863752397 L450.8621790271469,687.1122138123751 M450.8621790271469,687.1122138123751 L439.7453187412167,685.9376961106755 M439.7453187412167,685.9376961106755 L429.4408345696553,683.2638036085536 M429.4408345696553,683.2638036085536 L420.54859048848806,679.2465819087176 M420.58543803878825,755.7689551847575 L413.6303099256446,750.6370008144072 M413.6303099256446,750.6370008144072 L409.0062623689023,744.6938843502303 M409.0062623689023,744.6938843502303 L406.9810238767709,738.2856503372227 M406.9810238767709,738.2856503372227 L407.6708913738177,731.7850276913214 M407.6708913738177,731.7850276913214 L411.0342746750098,725.5697020872536 M411.0342746750098,725.5697020872536 L416.8744740274445,720.0003930847236 M416.8744740274445,720.0003930847236 L424.85137992956464,715.3999985953146 M424.85137992956464,715.3999985953146 L434.5014043532418,712.0350097363021 M434.5014043532418,712.0350097363021 L445.26442414142076,710.1002205901073 M445.26442414142076,710.1002205901073 L456.5161655387419,709.7075793712975 M456.5161655387419,709.7075793712975 L467.6042109026356,710.8798031976241 M467.6042109026356,710.8798031976241 L477.8855700316136,713.5490710088588 M477.8855700316136,713.5490710088588 L486.7637202159432,717.56090615527 M420.54859048848806,679.2465819087176 L413.58572821192683,674.1203432641225 M413.58572821192683,674.1203432641225 L408.95654361609866,668.1838480860797 M408.95654361609866,668.1838480860797 L406.92906152238845,661.7827561088466 M406.92906152238845,661.7827561088466 L407.6197061162428,655.28938117815 M407.6197061162428,655.28938117815 L410.9868387227009,649.080987757817 M410.9868387227009,649.080987757817 L416.83353894764804,643.5178925333687 M416.83353894764804,643.5178925333687 L424.81931793221656,638.9226322984023 M424.81931793221656,638.9226322984023 L434.48007198139373,635.561399789689 M434.48007198139373,635.561399789689 L445.2550559300486,633.6287707875495 M445.2550559300486,633.6287707875495 L456.5193034572735,633.2365679724419 M456.5193034572735,633.2365679724419 L467.6196734280299,634.4074829813371 M467.6196734280299,634.4074829813371 L477.912462506184,637.0737708191414 M477.912462506184,637.0737708191414 L486.8004859282638,641.0811280145795" stroke="black"  stroke-width="4"  fill="red"/></svg>